<?xml version="1.0" encoding="utf-8"?>
<!-- Generator: Adobe Illustrator 26.0.1, SVG Export Plug-In . SVG Version: 6.00 Build 0)  -->
<svg version="1.1" id="Layer_1" xmlns="http://www.w3.org/2000/svg" xmlns:xlink="http://www.w3.org/1999/xlink" x="0px" y="0px"
	 viewBox="0 0 1109 822" style="enable-background:new 0 0 1109 822;" xml:space="preserve">
<style type="text/css">
	.st0{fill:#FFFFFF;stroke:#000000;stroke-miterlimit:10;}
</style>
<path class="st0" d="M205.89,567.25h-10.23v-233.5h10.23c-0.4,13.78-0.82,33.99-0.79,58.87c0.01,5.83,0.04,10.06,0.05,11.77
	C205.29,423.58,205.51,467.43,205.89,567.25z"/>
<rect x="205.89" y="466.85" class="st0" width="44" height="94.52"/>
<rect x="277" y="367.5" class="st0" width="14" height="187.5"/>
<rect x="291" y="366.75" class="st0" width="63" height="21.25"/>
<rect x="295.44" y="460.48" class="st0" width="54.56" height="12.75"/>
<rect x="291" y="537.38" class="st0" width="78.04" height="17.62"/>
<rect x="388.77" y="368" transform="matrix(-1 -1.224647e-16 1.224647e-16 -1 789.0356 927)" class="st0" width="11.5" height="191"/>
<rect x="487.33" y="391.62" transform="matrix(-1 -1.224647e-16 1.224647e-16 -1 987.7004 948.75)" class="st0" width="13.05" height="165.5"/>
<rect x="406" y="474.38" class="st0" width="35" height="12.17"/>
<rect x="468.75" y="365.49" class="st0" width="58" height="20"/>
<rect x="400.95" y="365.44" class="st0" width="56.05" height="8.12"/>
<rect x="446" y="373" class="st0" width="15" height="186"/>
<rect x="506.7" y="537.38" transform="matrix(-1 -1.224647e-16 1.224647e-16 -1 1145.2021 1094.5)" class="st0" width="131.8" height="19.75"/>
<rect x="559.73" y="331.85" transform="matrix(0.866 0.5 -0.5 0.866 301.7616 -225.1897)" class="st0" width="22.71" height="237.3"/>
<rect x="467.5" y="333.06" class="st0" width="172.8" height="22.12"/>
<rect x="657.11" y="359.75" class="st0" width="81.32" height="15.5"/>
<rect x="659.05" y="415.27" class="st0" width="69.4" height="20.26"/>
<rect x="724" y="379.5" class="st0" width="14.43" height="43"/>
<rect x="722.74" y="435.52" class="st0" width="15.69" height="60.48"/>
<rect x="657.11" y="496" class="st0" width="75.63" height="18.54"/>
<rect x="755" y="354" class="st0" width="80" height="15.5"/>
<rect x="751" y="376.99" class="st0" width="18" height="135.07"/>
<rect x="768.35" y="496" class="st0" width="57.65" height="28"/>
<rect x="818.34" y="446.22" class="st0" width="15.32" height="68.32"/>
<rect x="790" y="408.53" transform="matrix(-1.836970e-16 1 -1 -1.836970e-16 1234.5261 -359.8238)" class="st0" width="14.34" height="57.65"/>
<rect x="848" y="356.52" class="st0" width="14.08" height="158.02"/>
<rect x="922.45" y="359" class="st0" width="13.1" height="153.06"/>
<rect x="877.18" y="483.89" transform="matrix(6.123234e-17 -1 1 6.123234e-17 373.1126 1408.1826)" class="st0" width="26.93" height="67.3"/>
<rect x="878.26" y="323.49" transform="matrix(6.123234e-17 -1 1 6.123234e-17 535.4601 1245.8351)" class="st0" width="24.78" height="63.4"/>
</svg>
