<?xml version="1.0" encoding="utf-8"?>
<!-- Generator: Adobe Illustrator 26.0.1, SVG Export Plug-In . SVG Version: 6.00 Build 0)  -->
<svg version="1.1" id="Layer_1" xmlns="http://www.w3.org/2000/svg" xmlns:xlink="http://www.w3.org/1999/xlink" x="0px" y="0px"
	 viewBox="0 0 612 792" style="enable-background:new 0 0 612 792;" xml:space="preserve">
<style type="text/css">
	.st0{fill:#FFFFFF;stroke:#000000;stroke-miterlimit:10;}
</style>
<path class="st0" d="M95,430.25H84.77v-96.5H95c-0.4,5.7-0.82,14.05-0.79,24.33c0.01,2.41,0.04,4.16,0.05,4.86
	C94.41,370.88,94.63,389,95,430.25z"/>
<rect x="96.11" y="386.82" class="st0" width="44" height="34.35"/>
<rect x="147" y="353" class="st0" width="10" height="70"/>
<rect x="157" y="353" class="st0" width="39" height="6"/>
<rect x="157" y="382" class="st0" width="19.5" height="6"/>
<rect x="157" y="414" class="st0" width="45" height="9"/>
<rect x="214" y="363.25" class="st0" width="6" height="59.5"/>
<rect x="243" y="363.25" transform="matrix(-1 -1.224647e-16 1.224647e-16 -1 493 786.25)" class="st0" width="7" height="59.75"/>
<rect x="220" y="356" class="st0" width="23" height="7.25"/>
<rect x="224" y="388" class="st0" width="15" height="8"/>
<rect x="266" y="359" class="st0" width="36" height="4.5"/>
<rect x="280" y="368" class="st0" width="8" height="56"/>
<rect x="294" y="320" class="st0" width="80" height="13"/>
<rect x="321.34" y="307.63" transform="matrix(0.781 0.6245 -0.6245 0.781 311.6138 -121.0737)" class="st0" width="14.21" height="152.34"/>
<rect x="275.5" y="443" class="st0" width="121.5" height="6.5"/>
<rect x="368" y="368" class="st0" width="29" height="9"/>
<rect x="368" y="396" class="st0" width="29" height="10"/>
<rect x="394.5" y="376.5" class="st0" width="5" height="17"/>
<rect x="394.5" y="405.5" class="st0" width="5" height="17"/>
<rect x="368" y="422.02" class="st0" width="29" height="10"/>
<rect x="406.9" y="367.5" class="st0" width="29" height="10"/>
<rect x="406.9" y="379.5" class="st0" width="5" height="17"/>
<rect x="406.7" y="404" class="st0" width="5.4" height="29"/>
<rect x="413.9" y="428.52" class="st0" width="23.3" height="7"/>
<rect x="434.5" y="404" class="st0" width="5.4" height="29"/>
<rect x="416.05" y="388" transform="matrix(-1.836970e-16 1 -1 -1.836970e-16 822.4009 -20.4009)" class="st0" width="10.7" height="26"/>
<rect x="459.4" y="356" transform="matrix(6.123234e-17 -1 1 6.123234e-17 89.898 833.8981)" class="st0" width="5" height="32"/>
<rect x="331.5" y="410" class="st0" width="5" height="17"/>
<rect x="445.9" y="377.5" class="st0" width="6.1" height="51.02"/>
<rect x="471.8" y="375.49" class="st0" width="6.1" height="51.02"/>
<rect x="459.4" y="416.02" transform="matrix(6.123234e-17 -1 1 6.123234e-17 29.8747 893.9214)" class="st0" width="5" height="32"/>
</svg>
